<mxfile host="app.diagrams.net" modified="2024-06-04T06:49:44.772Z" agent="Mozilla/5.0 (Windows NT 10.0; Win64; x64) AppleWebKit/537.36 (KHTML, like Gecko) Chrome/125.0.0.0 Safari/537.36" etag="zo330kRiPI6zcbkm-vY5" version="24.4.13" type="device">
  <diagram name="Page-1" id="c4acf3e9-155e-7222-9cf6-157b1a14988f">
    <mxGraphModel dx="800" dy="425" grid="1" gridSize="10" guides="1" tooltips="1" connect="1" arrows="1" fold="1" page="1" pageScale="1" pageWidth="850" pageHeight="1100" background="none" math="0" shadow="0">
      <root>
        <mxCell id="0" />
        <mxCell id="1" parent="0" />
        <mxCell id="lR-lPLE92mLA99ciqeRs-10" style="edgeStyle=orthogonalEdgeStyle;rounded=0;orthogonalLoop=1;jettySize=auto;html=1;exitX=0.25;exitY=0;exitDx=0;exitDy=0;entryX=0;entryY=0.75;entryDx=0;entryDy=0;" edge="1" parent="1" source="17acba5748e5396b-2">
          <mxGeometry relative="1" as="geometry">
            <mxPoint x="685" y="673" as="sourcePoint" />
            <mxPoint x="610" y="330" as="targetPoint" />
            <Array as="points">
              <mxPoint x="685" y="673" />
              <mxPoint x="590" y="673" />
              <mxPoint x="590" y="330" />
            </Array>
          </mxGeometry>
        </mxCell>
        <mxCell id="17acba5748e5396b-2" value="Vote" style="swimlane;html=1;fontStyle=0;childLayout=stackLayout;horizontal=1;startSize=26;fillColor=none;horizontalStack=0;resizeParent=1;resizeLast=0;collapsible=1;marginBottom=0;swimlaneFillColor=#ffffff;rounded=0;shadow=0;comic=0;labelBackgroundColor=none;strokeWidth=1;fontFamily=Verdana;fontSize=10;align=center;" parent="1" vertex="1">
          <mxGeometry x="640" y="698" width="180" height="186" as="geometry" />
        </mxCell>
        <mxCell id="17acba5748e5396b-9" value="+ field: string - Id (PK)&lt;div&gt;+ field: string -&amp;nbsp;UserId&lt;br&gt;&lt;div&gt;+ field: string -&amp;nbsp;StudentQuestionId(FK)&lt;br&gt;&lt;/div&gt;&lt;div&gt;+ field: string - AnswerId(FK)&lt;/div&gt;&lt;/div&gt;&lt;div&gt;+ field: bool-&amp;nbsp;IsUpvote&lt;/div&gt;" style="text;html=1;strokeColor=none;fillColor=none;align=left;verticalAlign=top;spacingLeft=4;spacingRight=4;whiteSpace=wrap;overflow=hidden;rotatable=0;points=[[0,0.5],[1,0.5]];portConstraint=eastwest;" parent="17acba5748e5396b-2" vertex="1">
          <mxGeometry y="26" width="180" height="154" as="geometry" />
        </mxCell>
        <mxCell id="17acba5748e5396b-20" value="ApplicationUser" style="swimlane;html=1;fontStyle=0;childLayout=stackLayout;horizontal=1;startSize=26;fillColor=none;horizontalStack=0;resizeParent=1;resizeLast=0;collapsible=1;marginBottom=0;swimlaneFillColor=#ffffff;rounded=0;shadow=0;comic=0;labelBackgroundColor=none;strokeWidth=1;fontFamily=Verdana;fontSize=10;align=center;" parent="1" vertex="1">
          <mxGeometry x="350" y="42" width="170" height="140" as="geometry" />
        </mxCell>
        <mxCell id="17acba5748e5396b-24" value="&lt;div&gt;&lt;br&gt;&lt;/div&gt;" style="text;html=1;strokeColor=none;fillColor=none;align=left;verticalAlign=top;spacingLeft=4;spacingRight=4;whiteSpace=wrap;overflow=hidden;rotatable=0;points=[[0,0.5],[1,0.5]];portConstraint=eastwest;" parent="17acba5748e5396b-20" vertex="1">
          <mxGeometry y="26" width="170" as="geometry" />
        </mxCell>
        <mxCell id="17acba5748e5396b-30" value="StudentQuestions" style="swimlane;html=1;fontStyle=0;childLayout=stackLayout;horizontal=1;startSize=26;fillColor=none;horizontalStack=0;resizeParent=1;resizeLast=0;collapsible=1;marginBottom=0;swimlaneFillColor=#ffffff;rounded=0;shadow=0;comic=0;labelBackgroundColor=none;strokeWidth=1;fontFamily=Verdana;fontSize=10;align=center;" parent="1" vertex="1">
          <mxGeometry x="580" y="57" width="180" height="160" as="geometry" />
        </mxCell>
        <mxCell id="17acba5748e5396b-31" value="+ field: string - Id (PK)&lt;div&gt;+ field: string -&amp;nbsp;Title&lt;br&gt;&lt;div&gt;+ field: string -&amp;nbsp;Content&lt;br&gt;&lt;/div&gt;&lt;div&gt;+ field: string - UserName&lt;br&gt;&lt;/div&gt;&lt;div&gt;+ field: string -&amp;nbsp;Address&lt;br&gt;&lt;/div&gt;&lt;div&gt;+ field: int- AnswersCount&lt;br&gt;&lt;/div&gt;&lt;div&gt;+ field: string -&amp;nbsp;CreatedAt&lt;/div&gt;&lt;/div&gt;&lt;div&gt;+ field: string -&amp;nbsp;VoteCount&lt;br&gt;&lt;/div&gt;" style="text;html=1;strokeColor=none;fillColor=none;align=left;verticalAlign=top;spacingLeft=4;spacingRight=4;whiteSpace=wrap;overflow=hidden;rotatable=0;points=[[0,0.5],[1,0.5]];portConstraint=eastwest;" parent="17acba5748e5396b-30" vertex="1">
          <mxGeometry y="26" width="180" height="134" as="geometry" />
        </mxCell>
        <mxCell id="5d2195bd80daf111-41" style="edgeStyle=orthogonalEdgeStyle;rounded=0;html=1;dashed=1;labelBackgroundColor=none;startFill=0;endArrow=open;endFill=0;endSize=10;fontFamily=Verdana;fontSize=10;" parent="1" source="5d2195bd80daf111-5" target="17acba5748e5396b-2" edge="1">
          <mxGeometry relative="1" as="geometry">
            <Array as="points" />
          </mxGeometry>
        </mxCell>
        <mxCell id="lR-lPLE92mLA99ciqeRs-9" style="edgeStyle=orthogonalEdgeStyle;rounded=0;orthogonalLoop=1;jettySize=auto;html=1;exitX=0.75;exitY=0;exitDx=0;exitDy=0;" edge="1" parent="1" source="5d2195bd80daf111-5" target="5d2195bd80daf111-17">
          <mxGeometry relative="1" as="geometry" />
        </mxCell>
        <mxCell id="5d2195bd80daf111-5" value="Answer" style="swimlane;html=1;fontStyle=0;childLayout=stackLayout;horizontal=1;startSize=26;fillColor=none;horizontalStack=0;resizeParent=1;resizeLast=0;collapsible=1;marginBottom=0;swimlaneFillColor=#ffffff;rounded=0;shadow=0;comic=0;labelBackgroundColor=none;strokeWidth=1;fontFamily=Verdana;fontSize=10;align=center;dashed=1;" parent="1" vertex="1">
          <mxGeometry x="620" y="450" width="200" height="193" as="geometry" />
        </mxCell>
        <mxCell id="5d2195bd80daf111-6" value="+ field: string - Id (PK)&lt;div&gt;+ field: string -&amp;nbsp;UserName&lt;br&gt;&lt;div&gt;+ field: string -&amp;nbsp;Content&lt;br&gt;&lt;/div&gt;&lt;div&gt;+ field: string - StudentQuestionId (FK)&lt;br&gt;&lt;/div&gt;&lt;div&gt;+ field: string -&amp;nbsp;StudentQuestion&lt;/div&gt;&lt;div&gt;+ field: string -&amp;nbsp;CreatedAt&lt;/div&gt;&lt;/div&gt;&lt;div&gt;+ field: string -&amp;nbsp;VoteCount&lt;/div&gt;" style="text;html=1;strokeColor=none;fillColor=none;align=left;verticalAlign=top;spacingLeft=4;spacingRight=4;whiteSpace=wrap;overflow=hidden;rotatable=0;points=[[0,0.5],[1,0.5]];portConstraint=eastwest;" parent="5d2195bd80daf111-5" vertex="1">
          <mxGeometry y="26" width="200" height="164" as="geometry" />
        </mxCell>
        <mxCell id="5d2195bd80daf111-10" value="&lt;p style=&quot;margin:0px;margin-top:4px;text-align:center;&quot;&gt;&lt;i&gt;&amp;lt;&amp;lt;Interface&amp;gt;&amp;gt;&lt;/i&gt;&lt;br&gt;&lt;b&gt;User&lt;/b&gt;&lt;/p&gt;&lt;hr size=&quot;1&quot;&gt;&lt;div style=&quot;font-family: Verdana; font-size: 10px; text-align: center;&quot;&gt;- User Details&lt;/div&gt;" style="verticalAlign=top;align=left;overflow=fill;fontSize=12;fontFamily=Helvetica;html=1;rounded=0;shadow=0;comic=0;labelBackgroundColor=none;strokeWidth=1" parent="1" vertex="1">
          <mxGeometry x="350" y="590" width="190" height="90" as="geometry" />
        </mxCell>
        <mxCell id="5d2195bd80daf111-13" value="&lt;div&gt;&lt;i style=&quot;background-color: initial;&quot;&gt;&amp;lt;&amp;lt;Interface&amp;gt;&amp;gt;&lt;/i&gt;&lt;/div&gt;&lt;b&gt;CreateAnswer&lt;/b&gt;&lt;p&gt;&lt;/p&gt;&lt;hr size=&quot;1&quot;&gt;&lt;p style=&quot;margin: 0px 0px 0px 4px; font-size: 11px;&quot;&gt;&lt;/p&gt;&lt;span style=&quot;background-color: initial;&quot;&gt;&lt;div&gt;&amp;nbsp;- Only Teacher can create answer&lt;/div&gt;&amp;nbsp;- Role base show&lt;/span&gt;&lt;p&gt;&lt;/p&gt;&lt;p style=&quot;margin: 0px 0px 0px 4px;&quot;&gt;&lt;br&gt;&lt;/p&gt;&lt;p style=&quot;margin: 0px 0px 0px 4px;&quot;&gt;&lt;br style=&quot;font-family: Helvetica; font-size: 12px; text-align: left;&quot;&gt;&lt;/p&gt;" style="html=1;rounded=0;shadow=0;comic=0;labelBackgroundColor=none;strokeWidth=1;fontFamily=Verdana;fontSize=10;align=center;" parent="1" vertex="1">
          <mxGeometry x="340" y="430" width="180" height="115" as="geometry" />
        </mxCell>
        <mxCell id="5d2195bd80daf111-26" style="edgeStyle=orthogonalEdgeStyle;rounded=0;html=1;dashed=1;labelBackgroundColor=none;startFill=0;endArrow=open;endFill=0;endSize=10;fontFamily=Verdana;fontSize=10;" parent="1" source="5d2195bd80daf111-15" target="5d2195bd80daf111-17" edge="1">
          <mxGeometry relative="1" as="geometry">
            <Array as="points">
              <mxPoint x="583" y="320" />
              <mxPoint x="583" y="300" />
            </Array>
          </mxGeometry>
        </mxCell>
        <mxCell id="5d2195bd80daf111-15" value="&lt;p style=&quot;margin:0px;margin-top:4px;text-align:center;&quot;&gt;&lt;i&gt;&amp;lt;&amp;lt;Interface&amp;gt;&amp;gt;&lt;/i&gt;&lt;br&gt;&lt;b&gt;Home&lt;/b&gt;&lt;/p&gt;&lt;hr size=&quot;1&quot;&gt;&lt;p style=&quot;margin:0px;margin-left:4px;&quot;&gt;All Questions&lt;/p&gt;&lt;p style=&quot;margin:0px;margin-left:4px;&quot;&gt;Role base show&lt;/p&gt;&lt;p style=&quot;margin:0px;margin-left:4px;&quot;&gt;Pagination&lt;/p&gt;&lt;p style=&quot;margin:0px;margin-left:4px;&quot;&gt;&lt;br&gt;&lt;/p&gt;" style="verticalAlign=top;align=left;overflow=fill;fontSize=12;fontFamily=Helvetica;html=1;rounded=0;shadow=0;comic=0;labelBackgroundColor=none;strokeWidth=1;" parent="1" vertex="1">
          <mxGeometry x="365" y="230" width="170" height="140" as="geometry" />
        </mxCell>
        <mxCell id="lR-lPLE92mLA99ciqeRs-21" style="edgeStyle=orthogonalEdgeStyle;rounded=0;orthogonalLoop=1;jettySize=auto;html=1;exitX=0.25;exitY=1;exitDx=0;exitDy=0;" edge="1" parent="1" source="5d2195bd80daf111-17" target="5d2195bd80daf111-13">
          <mxGeometry relative="1" as="geometry" />
        </mxCell>
        <mxCell id="5d2195bd80daf111-17" value="&lt;p style=&quot;margin: 4px 0px 0px;&quot;&gt;&lt;i&gt;&amp;lt;&amp;lt;Interface&amp;gt;&amp;gt;&lt;/i&gt;&lt;br&gt;&lt;b&gt;QuestionDetails&lt;/b&gt;&lt;/p&gt;&lt;hr size=&quot;1&quot;&gt;&lt;p style=&quot;margin: 0px 0px 0px 4px; font-size: 11px;&quot;&gt;&lt;/p&gt;&lt;ul&gt;&lt;li style=&quot;text-align: left;&quot;&gt;&lt;span style=&quot;background-color: initial;&quot;&gt;Single question shoed by id&lt;/span&gt;&lt;/li&gt;&lt;li style=&quot;text-align: left;&quot;&gt;&lt;span style=&quot;background-color: initial;&quot;&gt;Role base show&lt;/span&gt;&lt;/li&gt;&lt;li style=&quot;text-align: left;&quot;&gt;All Answers&lt;/li&gt;&lt;li style=&quot;text-align: left;&quot;&gt;Vote System&lt;/li&gt;&lt;/ul&gt;&lt;p&gt;&lt;/p&gt;&lt;p style=&quot;margin: 0px 0px 0px 4px;&quot;&gt;&lt;br&gt;&lt;/p&gt;&lt;p style=&quot;margin: 0px 0px 0px 4px;&quot;&gt;&lt;br style=&quot;font-family: Helvetica; font-size: 12px; text-align: left;&quot;&gt;&lt;/p&gt;" style="html=1;rounded=0;shadow=0;comic=0;labelBackgroundColor=none;strokeWidth=1;fontFamily=Verdana;fontSize=10;align=center;" parent="1" vertex="1">
          <mxGeometry x="611.25" y="245" width="217.5" height="140" as="geometry" />
        </mxCell>
        <mxCell id="5d2195bd80daf111-21" style="edgeStyle=orthogonalEdgeStyle;rounded=0;html=1;labelBackgroundColor=none;startFill=0;endArrow=open;endFill=0;endSize=10;fontFamily=Verdana;fontSize=10;dashed=1;" parent="1" source="5d2195bd80daf111-18" target="17acba5748e5396b-20" edge="1">
          <mxGeometry relative="1" as="geometry">
            <Array as="points">
              <mxPoint x="300" y="157" />
              <mxPoint x="300" y="100" />
            </Array>
          </mxGeometry>
        </mxCell>
        <mxCell id="5d2195bd80daf111-18" value="&lt;p style=&quot;margin:0px;margin-top:4px;text-align:center;&quot;&gt;&lt;i&gt;&amp;lt;&amp;lt;Interface&amp;gt;&amp;gt;&lt;/i&gt;&lt;i&gt;&lt;br&gt;&lt;/i&gt;&lt;/p&gt;&lt;p style=&quot;margin:0px;margin-top:4px;text-align:center;&quot;&gt;&lt;i&gt;Register&lt;/i&gt;&lt;/p&gt;&lt;hr size=&quot;1&quot;&gt;&lt;p style=&quot;margin:0px;margin-left:4px;&quot;&gt;&lt;span style=&quot;text-wrap: wrap; background-color: initial;&quot;&gt;+ field: string -&amp;nbsp;FirstName&lt;/span&gt;&lt;br&gt;&lt;/p&gt;&lt;div style=&quot;text-wrap: wrap;&quot;&gt;&lt;div&gt;+ field: string -&amp;nbsp;LastName&lt;br&gt;&lt;/div&gt;&lt;div&gt;+ field: string - email&lt;br&gt;&lt;/div&gt;&lt;div&gt;+ field: string -&amp;nbsp;Address&lt;br&gt;&lt;/div&gt;&lt;div&gt;+ field: string - PhoneNumber&lt;br&gt;&lt;/div&gt;&lt;div&gt;&lt;div&gt;&lt;div&gt;+ field: string - Password&lt;br&gt;&lt;/div&gt;&lt;div&gt;&lt;div&gt;&lt;div&gt;+ field: string - ConfirmPassword&lt;/div&gt;&lt;/div&gt;&lt;/div&gt;&lt;div&gt;&lt;/div&gt;&lt;/div&gt;&lt;p style=&quot;margin: 0px 0px 0px 4px;&quot;&gt;&lt;br&gt;&lt;/p&gt;&lt;/div&gt;&lt;/div&gt;&lt;p style=&quot;margin:0px;margin-left:4px;&quot;&gt;+ Identification&lt;/p&gt;" style="verticalAlign=top;align=left;overflow=fill;fontSize=12;fontFamily=Helvetica;html=1;rounded=0;shadow=0;comic=0;labelBackgroundColor=none;strokeWidth=1" parent="1" vertex="1">
          <mxGeometry x="60" y="50" width="190" height="200" as="geometry" />
        </mxCell>
        <mxCell id="5d2195bd80daf111-23" style="edgeStyle=orthogonalEdgeStyle;rounded=0;html=1;dashed=1;labelBackgroundColor=none;startFill=0;endArrow=open;endFill=0;endSize=10;fontFamily=Verdana;fontSize=10;" parent="1" source="5d2195bd80daf111-19" target="17acba5748e5396b-20" edge="1">
          <mxGeometry relative="1" as="geometry">
            <Array as="points">
              <mxPoint x="320" y="290" />
              <mxPoint x="320" y="120" />
            </Array>
          </mxGeometry>
        </mxCell>
        <mxCell id="5d2195bd80daf111-25" style="edgeStyle=orthogonalEdgeStyle;rounded=0;html=1;dashed=1;labelBackgroundColor=none;startFill=0;endArrow=open;endFill=0;endSize=10;fontFamily=Verdana;fontSize=10;" parent="1" source="5d2195bd80daf111-19" target="5d2195bd80daf111-15" edge="1">
          <mxGeometry relative="1" as="geometry">
            <Array as="points">
              <mxPoint x="340" y="340" />
              <mxPoint x="340" y="300" />
            </Array>
          </mxGeometry>
        </mxCell>
        <mxCell id="5d2195bd80daf111-19" value="&lt;p style=&quot;margin:0px;margin-top:4px;text-align:center;&quot;&gt;&lt;i&gt;&amp;lt;&amp;lt;Interface&amp;gt;&amp;gt;&lt;/i&gt;&lt;br&gt;&lt;b&gt;Login&lt;/b&gt;&lt;/p&gt;&lt;hr size=&quot;1&quot;&gt;&lt;p style=&quot;margin:0px;margin-left:4px;&quot;&gt;&lt;span style=&quot;text-wrap: wrap;&quot;&gt;+ field: string - email&lt;/span&gt;&lt;br&gt;&lt;/p&gt;&lt;p style=&quot;margin:0px;margin-left:4px;&quot;&gt;&lt;span style=&quot;text-wrap: wrap; background-color: initial;&quot;&gt;+ field: string - Password&lt;/span&gt;&lt;/p&gt;&lt;p style=&quot;margin:0px;margin-left:4px;&quot;&gt;&lt;br&gt;&lt;/p&gt;&lt;p style=&quot;margin:0px;margin-left:4px;&quot;&gt;&lt;br&gt;&lt;/p&gt;" style="verticalAlign=top;align=left;overflow=fill;fontSize=12;fontFamily=Helvetica;html=1;rounded=0;shadow=0;comic=0;labelBackgroundColor=none;strokeWidth=1" parent="1" vertex="1">
          <mxGeometry x="60" y="270" width="190" height="90" as="geometry" />
        </mxCell>
        <mxCell id="5d2195bd80daf111-29" style="edgeStyle=orthogonalEdgeStyle;rounded=0;html=1;dashed=1;labelBackgroundColor=none;startFill=0;endArrow=open;endFill=0;endSize=10;fontFamily=Verdana;fontSize=10;" parent="1" source="5d2195bd80daf111-20" target="5d2195bd80daf111-13" edge="1">
          <mxGeometry relative="1" as="geometry" />
        </mxCell>
        <mxCell id="lR-lPLE92mLA99ciqeRs-14" style="edgeStyle=orthogonalEdgeStyle;rounded=0;orthogonalLoop=1;jettySize=auto;html=1;exitX=0.75;exitY=0;exitDx=0;exitDy=0;entryX=0.235;entryY=0.982;entryDx=0;entryDy=0;entryPerimeter=0;" edge="1" parent="1" source="5d2195bd80daf111-20" target="17acba5748e5396b-21">
          <mxGeometry relative="1" as="geometry">
            <mxPoint x="390" y="190" as="targetPoint" />
            <Array as="points">
              <mxPoint x="270" y="450" />
              <mxPoint x="270" y="220" />
              <mxPoint x="390" y="220" />
            </Array>
          </mxGeometry>
        </mxCell>
        <mxCell id="5d2195bd80daf111-20" value="&lt;p style=&quot;margin: 4px 0px 0px;&quot;&gt;&lt;/p&gt;&lt;div style=&quot;text-align: center;&quot;&gt;&lt;i style=&quot;background-color: initial;&quot;&gt;&amp;lt;&amp;lt;Interface&amp;gt;&amp;gt;&lt;/i&gt;&lt;/div&gt;&lt;b&gt;&lt;div style=&quot;text-align: center;&quot;&gt;&lt;b style=&quot;font-family: Verdana; font-size: 10px;&quot;&gt;CreateQuestion&lt;/b&gt;&lt;br&gt;&lt;/div&gt;&lt;/b&gt;&lt;p&gt;&lt;/p&gt;&lt;hr size=&quot;1&quot;&gt;&lt;p style=&quot;margin: 0px 0px 0px 4px; font-size: 11px;&quot;&gt;&lt;/p&gt;&lt;span style=&quot;background-color: initial;&quot;&gt;&lt;div style=&quot;&quot;&gt;&lt;div style=&quot;&quot;&gt;&amp;nbsp;- Only Student can create quesiton&lt;/div&gt;&lt;span style=&quot;background-color: initial;&quot;&gt;&lt;div style=&quot;&quot;&gt;&lt;span style=&quot;background-color: initial;&quot;&gt;&amp;nbsp;- Role base show&lt;/span&gt;&lt;/div&gt;&lt;/span&gt;&lt;/div&gt;&lt;/span&gt;&lt;p&gt;&lt;/p&gt;&lt;p style=&quot;margin: 0px 0px 0px 4px;&quot;&gt;&lt;br&gt;&lt;/p&gt;&lt;p style=&quot;margin: 0px 0px 0px 4px;&quot;&gt;&lt;br&gt;&lt;/p&gt;" style="verticalAlign=top;align=left;overflow=fill;fontSize=12;fontFamily=Helvetica;html=1;rounded=0;shadow=0;comic=0;labelBackgroundColor=none;strokeWidth=1" parent="1" vertex="1">
          <mxGeometry x="60" y="450" width="190" height="100" as="geometry" />
        </mxCell>
        <mxCell id="lR-lPLE92mLA99ciqeRs-20" style="edgeStyle=orthogonalEdgeStyle;rounded=0;orthogonalLoop=1;jettySize=auto;html=1;exitX=1;exitY=0.5;exitDx=0;exitDy=0;entryX=1;entryY=0.25;entryDx=0;entryDy=0;" edge="1" parent="1" source="17acba5748e5396b-21" target="5d2195bd80daf111-13">
          <mxGeometry relative="1" as="geometry" />
        </mxCell>
        <mxCell id="lR-lPLE92mLA99ciqeRs-23" style="edgeStyle=orthogonalEdgeStyle;rounded=0;orthogonalLoop=1;jettySize=auto;html=1;exitX=0;exitY=0.5;exitDx=0;exitDy=0;entryX=0;entryY=0.5;entryDx=0;entryDy=0;" edge="1" parent="1" source="17acba5748e5396b-21" target="5d2195bd80daf111-10">
          <mxGeometry relative="1" as="geometry" />
        </mxCell>
        <mxCell id="17acba5748e5396b-21" value="+ field: string - Id (PK)&lt;div&gt;+ field: string -&amp;nbsp;FirstName&lt;br&gt;&lt;div&gt;+ field: string -&amp;nbsp;LastName&lt;br&gt;&lt;/div&gt;&lt;div&gt;+ field: string - email&lt;br&gt;&lt;/div&gt;&lt;div&gt;+ field: string -&amp;nbsp;Address&lt;br&gt;&lt;/div&gt;&lt;div&gt;+ field: string - PhoneNumber&lt;br&gt;&lt;/div&gt;&lt;div&gt;+ field: string -&amp;nbsp;CreatedAt&lt;/div&gt;&lt;/div&gt;" style="text;html=1;strokeColor=none;fillColor=none;align=left;verticalAlign=top;spacingLeft=4;spacingRight=4;whiteSpace=wrap;overflow=hidden;rotatable=0;points=[[0,0.5],[1,0.5]];portConstraint=eastwest;" parent="1" vertex="1">
          <mxGeometry x="350" y="68" width="170" height="114" as="geometry" />
        </mxCell>
        <mxCell id="lR-lPLE92mLA99ciqeRs-7" style="edgeStyle=orthogonalEdgeStyle;rounded=0;orthogonalLoop=1;jettySize=auto;html=1;exitX=0.25;exitY=0;exitDx=0;exitDy=0;entryX=0.459;entryY=1;entryDx=0;entryDy=0;entryPerimeter=0;dashed=1;" edge="1" parent="1" source="5d2195bd80daf111-15" target="17acba5748e5396b-21">
          <mxGeometry relative="1" as="geometry" />
        </mxCell>
        <mxCell id="lR-lPLE92mLA99ciqeRs-8" style="edgeStyle=orthogonalEdgeStyle;rounded=0;orthogonalLoop=1;jettySize=auto;html=1;exitX=0.5;exitY=0;exitDx=0;exitDy=0;entryX=-0.011;entryY=0.843;entryDx=0;entryDy=0;entryPerimeter=0;dashed=1;" edge="1" parent="1" source="5d2195bd80daf111-15" target="17acba5748e5396b-31">
          <mxGeometry relative="1" as="geometry" />
        </mxCell>
        <mxCell id="lR-lPLE92mLA99ciqeRs-11" style="edgeStyle=orthogonalEdgeStyle;rounded=0;orthogonalLoop=1;jettySize=auto;html=1;exitX=0.25;exitY=0;exitDx=0;exitDy=0;entryX=0.45;entryY=1.015;entryDx=0;entryDy=0;entryPerimeter=0;" edge="1" parent="1" source="5d2195bd80daf111-17" target="17acba5748e5396b-31">
          <mxGeometry relative="1" as="geometry" />
        </mxCell>
        <mxCell id="lR-lPLE92mLA99ciqeRs-16" style="edgeStyle=orthogonalEdgeStyle;rounded=0;orthogonalLoop=1;jettySize=auto;html=1;exitX=0;exitY=0.5;exitDx=0;exitDy=0;entryX=1;entryY=0.25;entryDx=0;entryDy=0;" edge="1" parent="1" source="17acba5748e5396b-31" target="5d2195bd80daf111-20">
          <mxGeometry relative="1" as="geometry">
            <Array as="points">
              <mxPoint x="550" y="150" />
              <mxPoint x="550" y="400" />
              <mxPoint x="250" y="400" />
            </Array>
          </mxGeometry>
        </mxCell>
        <mxCell id="lR-lPLE92mLA99ciqeRs-17" style="edgeStyle=orthogonalEdgeStyle;rounded=0;orthogonalLoop=1;jettySize=auto;html=1;exitX=0.25;exitY=1;exitDx=0;exitDy=0;entryX=0.464;entryY=-0.014;entryDx=0;entryDy=0;entryPerimeter=0;" edge="1" parent="1" source="5d2195bd80daf111-15" target="5d2195bd80daf111-20">
          <mxGeometry relative="1" as="geometry">
            <Array as="points">
              <mxPoint x="408" y="390" />
              <mxPoint x="148" y="390" />
            </Array>
          </mxGeometry>
        </mxCell>
        <mxCell id="lR-lPLE92mLA99ciqeRs-22" style="edgeStyle=orthogonalEdgeStyle;rounded=0;orthogonalLoop=1;jettySize=auto;html=1;exitX=0.5;exitY=1;exitDx=0;exitDy=0;" edge="1" parent="1" source="5d2195bd80daf111-10" target="5d2195bd80daf111-10">
          <mxGeometry relative="1" as="geometry" />
        </mxCell>
      </root>
    </mxGraphModel>
  </diagram>
</mxfile>
